first trial
nRows=4
nColumns=165

# SIMM Motion File Header:
name first trial
datacolumns 165
datarows 4
otherdata 1
range 1.36700000000000000000 1.41700000000000000000
endheader
time	pelvis_tx	pelvis_ty	pelvis_tz	pelvis_tilt	pelvis_list	pelvis_rotation	hip_flexion_r	hip_adduction_r	hip_rotation_r	knee_angle_r	ankle_angle_r	subtalar_angle_r	mtp_angle_r	hip_flexion_l	hip_adduction_l	hip_rotation_l	knee_angle_l	ankle_angle_l	subtalar_angle_l	mtp_angle_l	lumbar_extension	lumbar_bending	lumbar_rotation	R.ASIS_tx	R.ASIS_ty	R.ASIS_tz	L.ASIS_tx	L.ASIS_ty	L.ASIS_tz	V.Sacral_tx	V.Sacral_ty	V.Sacral_tz	R.Thigh.Upper_tx	R.Thigh.Upper_ty	R.Thigh.Upper_tz	R.Thigh.Front_tx	R.Thigh.Front_ty	R.Thigh.Front_tz	R.Thigh.Rear_tx	R.Thigh.Rear_ty	R.Thigh.Rear_tz	L.Thigh.Upper_tx	L.Thigh.Upper_ty	L.Thigh.Upper_tz	L.Thigh.Front_tx	L.Thigh.Front_ty	L.Thigh.Front_tz	L.Thigh.Rear_tx	L.Thigh.Rear_ty	L.Thigh.Rear_tz	R.Shank.Upper_tx	R.Shank.Upper_ty	R.Shank.Upper_tz	R.Shank.Front_tx	R.Shank.Front_ty	R.Shank.Front_tz	R.Shank.Rear_tx	R.Shank.Rear_ty	R.Shank.Rear_tz	L.Shank.Upper_tx	L.Shank.Upper_ty	L.Shank.Upper_tz	L.Shank.Front_tx	L.Shank.Front_ty	L.Shank.Front_tz	L.Shank.Rear_tx	L.Shank.Rear_ty	L.Shank.Rear_tz	R.Heel_tx	R.Heel_ty	R.Heel_tz	R.Midfoot.Sup_tx	R.Midfoot.Sup_ty	R.Midfoot.Sup_tz	R.Midfoot.Lat_tx	R.Midfoot.Lat_ty	R.Midfoot.Lat_tz	R.Toe.Tip_tx	R.Toe.Tip_ty	R.Toe.Tip_tz	L.Heel_tx	L.Heel_ty	L.Heel_tz	L.Midfoot.Sup_tx	L.Midfoot.Sup_ty	L.Midfoot.Sup_tz	L.Midfoot.Lat_tx	L.Midfoot.Lat_ty	L.Midfoot.Lat_tz	L.Toe.Tip_tx	L.Toe.Tip_ty	L.Toe.Tip_tz	Sternum_tx	Sternum_ty	Sternum_tz	R.Acromium_tx	R.Acromium_ty	R.Acromium_tz	L.Acromium_tx	L.Acromium_ty	L.Acromium_tz	R.Bicep_tx	R.Bicep_ty	R.Bicep_tz	L.Bicep_tx	L.Bicep_ty	L.Bicep_tz	R.Elbow_tx	R.Elbow_ty	R.Elbow_tz	L.Elbow_tx	L.Elbow_ty	L.Elbow_tz	R.Wrist.Med_tx	R.Wrist.Med_ty	R.Wrist.Med_tz	R.Wrist.Lat_tx	R.Wrist.Lat_ty	R.Wrist.Lat_tz	L.Wrist.Med_tx	L.Wrist.Med_ty	L.Wrist.Med_tz	L.Wrist.Lat_tx	L.Wrist.Lat_ty	L.Wrist.Lat_tz	R.Toe.Lat_tx	R.Toe.Lat_ty	R.Toe.Lat_tz	R.Toe.Med_tx	R.Toe.Med_ty	R.Toe.Med_tz	L.Toe.Lat_tx	L.Toe.Lat_ty	L.Toe.Lat_tz	L.Toe.Med_tx	L.Toe.Med_ty	L.Toe.Med_tz	R.Temple_tx	R.Temple_ty	R.Temple_tz	L.Temple_tx	L.Temple_ty	L.Temple_tz	Top.Head_tx	Top.Head_ty	Top.Head_tz	ground_force_vx	ground_force_vy	ground_force_vz	ground_force_px	ground_force_py	ground_force_pz	ground_force_vx	ground_force_vy	ground_force_vz	ground_force_px	ground_force_py	ground_force_pz	ground_torque_x	ground_torque_y	ground_torque_z	ground_torque_x	ground_torque_y	ground_torque_z
      1.36700000000000000000	      0.59756815798444807000	      1.01712377459105970000	      0.03044459616345310300	      5.51951072361352680000	     -2.52758888044534700000	     -4.64298728894855990000	    -16.49962467651580800000	      0.74396058090490413000	      0.89681621603950712000	    -34.25183341101623600000	      5.94110080856212260000	      0.00042090216270913546	      0.00000054256791924325	     18.09242065778253000000	     -2.54496169070232540000	     -3.87195352798525420000	    -19.09207025187362600000	     -3.22315192869459160000	     -0.00020573612682694536	      0.00000024113314098156	    -15.50633170651124700000	     -1.52393009504652490000	      2.16941308026879880000	      0.60762127999999993000	      1.05307129000000010000	      0.16047549000000000000	      0.63164368000000004000	      1.04882067999999990000	     -0.09929385000000000300	      0.42040039000000001000	      1.04887561000000010000	      0.01908388000000000100	      0.51958405000000008000	      0.73632470999999999000	      0.21059683000000001000	      0.58230694999999999000	      0.65928973000000002000	      0.13406366000000000000	      0.49106671000000002000	      0.61723901000000003000	      0.20778979000000000000	      0.65036425999999992000	      0.74735302999999997000	     -0.14860373999999998000	      0.74782989999999994000	      0.74223260000000002000	     -0.08246134000000000800	      0.68762988000000003000	      0.64634369000000003000	     -0.13137752000000000000	      0.36458456000000000000	      0.48309753000000000000	      0.19450839000000000000	      0.40787473000000002000	      0.40463046000000003000	      0.14789534000000001000	      0.32046591000000002000	      0.40848044000000000000	      0.19784688000000000000	      0.73064531999999993000	      0.44195724000000003000	     -0.12397008000000000000	      0.78128015000000006000	      0.39875281000000001000	     -0.06687711000000000300	      0.71502679000000002000	      0.39657825000000002000	     -0.13252263000000000000	      0.07295761000000000600	      0.21337770000000000000	      0.09904820000000000300	      0.19098845000000000000	      0.12780871000000002000	      0.07458432999999999000	      0.16054248000000002000	      0.11368744000000000000	      0.17896239000000000000	      0.27033896000000002000	      0.03782412999999999700	      0.11814784000000000000	      0.68253839000000005000	      0.07387900999999999500	     -0.03971849000000000200	      0.84930475000000005000	      0.08117300000000000900	     -0.00829022999999999910	      0.83663995000000002000	      0.07345834999999999200	     -0.10616966000000000000	      0.96275878999999998000	      0.06639280999999999700	     -0.03475787999999999800	      0.64116039999999996000	      1.35634875000000020000	     -0.00120435000000000010	      0.54021545000000004000	      1.45275597999999980000	      0.20481559999999999000	      0.57238544000000002000	      1.45935791000000000000	     -0.21401601000000001000	      0.56166570999999998000	      1.25520972000000010000	      0.26015372000000003000	      0.57121776999999996000	      1.22021619000000010000	     -0.23882103000000002000	      0.52837316999999995000	      1.15146423000000000000	      0.29817459000000002000	      0.51355048000000003000	      1.12813672000000010000	     -0.27202556999999999000	      0.70418835000000002000	      0.94648560000000004000	      0.28455275999999996000	      0.67149274000000003000	      0.92856903000000002000	      0.33936826000000003000	      0.60854406999999999000	      0.89592426000000003000	     -0.22671663000000000000	      0.56017022999999999000	      0.88674834999999996000	     -0.28371539000000001000	      0.20700465000000001000	      0.03990817000000000000	      0.19788147000000000000	      0.23394183000000002000	      0.04388891999999999800	      0.08693961000000000100	      0.89822247000000011000	      0.05094680000000000700	     -0.11314130000000000000	      0.91251367000000005000	      0.06043309000000000200	     -0.01074661000000000000	      0.70496216000000000000	      1.58054553000000020000	      0.08149422000000000600	      0.72075391000000000000	      1.58292480000000000000	     -0.05706994000000000600	      0.71483459000000005000	      1.75682213999999990000	      0.01894653000000000000	     59.25272353999999800000	    178.87683908000000000000	     -0.59296409000000005000	      0.25604131000000002000	     -0.00749999999999999970	      0.13168155000000001000	    -89.42242330000000500000	    606.26352288999999000000	     18.38147538999999900000	      0.73577647999999995000	     -0.00749999999999999970	     -0.04724555999999999900	      0.02772710999999999900	      2.43838764000000020000	     -0.48464175999999998000	      0.00000000000000000000	      8.14548315000000040000	      0.00000000000000000000
      1.38300000000000000000	      0.59995131536991264000	      1.01887017989845900000	      0.02679377591748031300	      5.67102706790333850000	     -1.99264807032999960000	     -4.49243746710034930000	    -13.81507433532458900000	     -0.53769619771881916000	     -0.88847294351898398000	    -40.44955801601372500000	      1.75648536267393160000	      0.00042885896610418749	     -0.00000028414537605373	     17.10255639147917600000	     -1.73629174778292380000	     -3.96520965365311100000	    -19.95240906186111500000	     -2.48012827647988800000	     -0.00019598483964586348	     -0.00000070166571539203	    -15.42029312337428400000	     -2.20411690303492950000	      1.79451551439883360000	      0.61024341000000004000	      1.05451331000000010000	      0.15666705000000000000	      0.63404448999999996000	      1.05140991000000010000	     -0.10268336000000000000	      0.42276910000000001000	      1.05000464000000000000	      0.01689082000000000100	      0.53123059000000006000	      0.73579663000000006000	      0.21280659000000002000	      0.59970813000000001000	      0.66090062999999999000	      0.13483688000000002000	      0.50814278999999996000	      0.61553851000000004000	      0.20930283000000000000	      0.65002686000000010000	      0.74914568999999998000	     -0.15197476000000001000	      0.74954102000000000000	      0.74258783000000006000	     -0.08658808000000001200	      0.68486340000000001000	      0.64732788000000008000	     -0.13527303000000002000	      0.38481567000000000000	      0.48469516000000001000	      0.19661533000000000000	      0.42402484000000001000	      0.40365039000000003000	      0.15104338000000000000	      0.33688062000000002000	      0.41179132000000002000	      0.19919193000000002000	      0.72292230000000002000	      0.44098833999999998000	     -0.12796081000000001000	      0.77183124000000003000	      0.39673007000000005000	     -0.06892096999999999800	      0.70701605000000001000	      0.39646514999999999000	     -0.13544292999999999000	      0.08318510000000001200	      0.23649263000000001000	      0.09837334000000000400	      0.19141273000000000000	      0.13849393000000002000	      0.07599791999999999700	      0.15732503000000000000	      0.12734641999999999000	      0.17879979000000001000	      0.25641330000000001000	      0.03538399999999999900	      0.12023668999999999000	      0.66483014000000007000	      0.07418172000000000700	     -0.04088968999999999900	      0.83175708000000004000	      0.07895262999999999600	     -0.00945933000000000020	      0.81884424000000000000	      0.07153674000000000100	     -0.10733792000000000000	      0.94527678999999998000	      0.06138045999999999800	     -0.03619959999999999800	      0.64238898000000000000	      1.35875330000000010000	     -0.00466966000000000080	      0.54168488000000004000	      1.45603040000000020000	      0.20053559999999998000	      0.57388068000000003000	      1.46079578000000000000	     -0.21797020000000000000	      0.55877221999999993000	      1.25832799999999990000	      0.25636495999999998000	      0.57682043000000005000	      1.22118102999999990000	     -0.24176403999999999000	      0.52406732000000000000	      1.15488208000000010000	      0.29395428000000001000	      0.52058642999999993000	      1.12834521000000000000	     -0.27436282000000001000	      0.69437006000000001000	      0.94468987999999998000	      0.28686969000000001000	      0.65958893000000007000	      0.92764789000000003000	      0.33986905000000001000	      0.61690545999999991000	      0.89604047000000009000	     -0.22940862000000001000	      0.56847119000000002000	      0.88658942000000007000	     -0.28579205000000002000	      0.19400246000000002000	      0.04647062999999999900	      0.19816703999999999000	      0.22400105000000001000	      0.04996963000000000100	      0.08807690999999999400	      0.88102881000000000000	      0.04768734000000000200	     -0.11413638000000001000	      0.89487090999999996000	      0.05733222000000000300	     -0.01185986000000000000	      0.70532196000000003000	      1.58344885000000010000	      0.07793626999999998800	      0.72022107000000002000	      1.58590308000000000000	     -0.06043885000000000200	      0.71358612000000010000	      1.75958459000000000000	      0.01482569000000000100	     35.10499438000000100000	     97.94408737000000500000	      0.04177320000000000300	      0.25815380999999998000	     -0.00749999999999999970	      0.12991965000000000000	   -100.83855256000000000000	    685.33735821000005000000	     37.12496258000000200000	      0.72934918999999998000	     -0.00749999999999999970	     -0.05136835000000000000	      0.03880285000000000000	      0.24347165000000001000	     -0.02025439000000000100	      0.00000000000000000000	      8.46152704000000000000	      0.00000000000000000000
      1.39999999999999990000	      0.60159221325321666000	      1.02062459936816640000	      0.02324277957625970800	      5.76872433501807970000	     -1.41443342909058380000	     -4.34440494634379970000	    -10.84596724458969600000	     -2.07204009964358880000	     -2.67292313160790450000	    -46.41139773609538800000	     -2.77836372329764860000	      0.00033026628965689982	      0.00000047044332290590	     16.03202222133516800000	     -0.86698873698542767000	     -4.03179901977586130000	    -20.49267311526668700000	     -1.55926564285466210000	     -0.00018603121117287259	      0.00000174561319192442	    -15.24941861798863700000	     -2.89640334149490200000	      1.15387798649795400000	      0.61263762999999993000	      1.05668579000000000000	      0.15394180000000002000	      0.63522931000000005000	      1.05366516000000000000	     -0.10565951000000000000	      0.42441079999999998000	      1.05140709999999980000	      0.01438410000000000000	      0.54381073000000002000	      0.73500836000000003000	      0.21042032000000002000	      0.61617748999999999000	      0.66210736000000003000	      0.13621213000000001000	      0.52699847000000000000	      0.61381408999999998000	      0.20986615000000000000	      0.64811443999999996000	      0.75087926999999999000	     -0.15519168000000000000	      0.74701635999999993000	      0.74197211000000007000	     -0.09046912000000000000	      0.68120849999999999000	      0.64881421000000006000	     -0.13825250000000000000	      0.40820770000000001000	      0.48584006000000002000	      0.19791237000000000000	      0.44232030999999999000	      0.40325574000000003000	      0.15342116000000000000	      0.35565368999999997000	      0.41589862000000000000	      0.20098365999999998000	      0.71350800000000003000	      0.44071017000000001000	     -0.13009402000000000000	      0.76202477999999996000	      0.39545679000000000000	     -0.07191023000000000600	      0.69678607000000004000	      0.39627807999999998000	     -0.13804089000000000000	      0.09868818000000000000	      0.25933514000000002000	      0.09713364000000000700	      0.19605852999999998000	      0.14973438999999999000	      0.07755762000000000800	      0.15874014000000000000	      0.14250027000000001000	      0.17864804000000001000	      0.24652106000000001000	      0.03352863000000000400	      0.12292198000000001000	      0.64672729000000007000	      0.07425809999999999400	     -0.04192367000000000300	      0.81347997999999999000	      0.07735084000000000400	     -0.01042067000000000000	      0.80054816000000006000	      0.07035513000000000200	     -0.10832282999999999000	      0.92723767000000001000	      0.05792172999999999800	     -0.03753672000000000300	      0.64330047999999995000	      1.36188782000000000000	     -0.00741927000000000040	      0.54094611000000004000	      1.45952148000000000000	      0.19686891000000001000	      0.57522826999999999000	      1.46221777000000010000	     -0.22149257000000000000	      0.55640399000000007000	      1.26111035000000000000	      0.25288158999999999000	      0.58325378000000005000	      1.22253027000000000000	     -0.24367279000000000000	      0.51964850000000007000	      1.15843530000000010000	      0.29001019000000006000	      0.52791785000000002000	      1.12860388000000000000	     -0.27653137000000000000	      0.68354950000000003000	      0.94280939000000008000	      0.28860321000000000000	      0.64736212000000004000	      0.92722955000000007000	      0.34061865000000002000	      0.62383606000000003000	      0.89594298999999999000	     -0.23015020999999999000	      0.57703705000000005000	      0.88732781999999999000	     -0.28805639999999999000	      0.18407035999999999000	      0.05615947000000000300	      0.19760373000000001000	      0.21813620000000000000	      0.05784079000000000300	      0.08980396000000000200	      0.86329706000000006000	      0.04571368000000000000	     -0.11505914000000000000	      0.87676678000000008000	      0.05534435000000000000	     -0.01285298000000000000	      0.70520441000000011000	      1.58681665000000010000	      0.07387362000000000100	      0.72031012000000005000	      1.58899207000000000000	     -0.06416257000000000200	      0.71253552000000009000	      1.76424011000000000000	      0.01055359000000000000	     13.75860551000000100000	     38.88129249000000000000	     -1.99759284000000000000	      0.26339083000000002000	     -0.00749999999999999970	      0.12807223000000001000	   -102.91539598000000000000	    742.62145845999999000000	     45.11746725999999800000	      0.71899473999999997000	     -0.00749999999999999970	     -0.05373884000000000300	      0.60151664000000005000	      0.23201247999999999000	      0.20420100999999999000	      0.00000000000000000000	      8.75411384999999950000	      0.00000000000000000000
      1.41700000000000000000	      0.60291578580809257000	      1.02308798754457460000	      0.01951211991676198400	      5.99111661556740230000	     -0.83463548440260227000	     -4.25805429439625890000	     -8.05133216905941400000	     -3.74323979755750310000	     -4.14482585960853190000	    -51.67560067037102600000	     -6.70174015129168050000	      0.00015454902394574529	      0.00000010878317946973	     14.48131657282761100000	      0.05832111967906213100	     -4.15166822667082870000	    -20.33627674283885900000	     -0.69031923721147770000	     -0.00018438963345194945	      0.00000149874012461279	    -15.36306408609129200000	     -3.52439210095326860000	      0.66248167634467148000	      0.61449139000000008000	      1.05982751000000010000	      0.15099080000000001000	      0.63656140000000005000	      1.05657080000000000000	     -0.10872912999999999000	      0.42529271999999996000	      1.05308813000000010000	      0.01168613000000000100	      0.55532525999999993000	      0.73509595000000005000	      0.20941177000000000000	      0.63274030000000003000	      0.66560876000000002000	      0.13625021000000001000	      0.54567107999999998000	      0.61354547000000004000	      0.20989946000000001000	      0.64491790999999998000	      0.75262006000000004000	     -0.15815831000000000000	      0.74245569000000000000	      0.74118719000000000000	     -0.09365118999999999500	      0.67331079000000005000	      0.64877167000000002000	     -0.14005576000000000000	      0.43158294999999997000	      0.48804809999999998000	      0.19989702000000001000	      0.46407321000000001000	      0.40383582000000001000	      0.15388808000000001000	      0.37726846000000003000	      0.41967297000000003000	      0.20237817000000002000	      0.70154871000000008000	      0.44005309999999997000	     -0.13262078999999999000	      0.75012354000000003000	      0.39418401999999997000	     -0.07398456000000000500	      0.68476068000000001000	      0.39610135000000002000	     -0.14027851999999999000	      0.11771391000000000000	      0.28010253999999996000	      0.09536912999999999600	      0.20495619000000001000	      0.16100352000000001000	      0.07900038000000000900	      0.16515106000000002000	      0.15808543000000000000	      0.17854596000000000000	      0.24290858000000001000	      0.03359631000000000400	      0.12600030000000001000	      0.62836310000000006000	      0.07426779999999999500	     -0.04267616000000000500	      0.79478112999999995000	      0.07626310999999999500	     -0.01109477000000000000	      0.78195825000000008000	      0.06968309000000000300	     -0.10904517000000000000	      0.90880029000000007000	      0.05566819000000000600	     -0.03856222000000000100	      0.64537249999999990000	      1.36579126000000000000	     -0.01045914000000000000	      0.54053045999999993000	      1.46281311000000010000	      0.19377637000000000000	      0.57703461000000000000	      1.46456970000000000000	     -0.22442506000000001000	      0.55365642999999998000	      1.26454663000000010000	      0.25051747000000002000	      0.58922753999999999000	      1.22434985000000010000	     -0.24526286000000000000	      0.51514709000000003000	      1.16204663000000010000	      0.28651251000000005000	      0.53661077999999995000	      1.12952587999999990000	     -0.27877663999999996000	      0.67245714999999995000	      0.94171515000000006000	      0.28926974000000000000	      0.63445599000000008000	      0.92693182000000007000	      0.34116784999999999000	      0.63272234999999999000	      0.89742316000000011000	     -0.23132039000000001000	      0.58613232000000004000	      0.88828931000000000000	     -0.29013074000000000000	      0.17977080000000001000	      0.06863459000000000900	      0.19637178000000000000	      0.21804131000000002000	      0.06711287000000000500	      0.09199090999999999500	      0.84506512000000000000	      0.04470568999999999900	     -0.11579517000000000000	      0.85842682000000003000	      0.05415845999999999900	     -0.01354007000000000000	      0.70399597000000003000	      1.59029332999999990000	      0.07070071000000000000	      0.71956408999999999000	      1.59237561000000020000	     -0.06798242999999999600	      0.71105193999999994000	      1.76733130000000020000	      0.00676193000000000020	      0.75040004000000005000	      9.01964498000000070000	     -3.35348141000000010000	      0.27151186999999999000	     -0.00749999999999999970	      0.12624560000000001000	    -97.92593254000000500000	    766.89925588999995000000	     43.59135214999999900000	      0.70502739000000003000	     -0.00749999999999999970	     -0.05462539000000000300	      0.92495031999999999000	      1.03996740000000010000	     -0.14967770000000000000	      0.00000000000000000000	      9.24338805000000010000	      0.00000000000000000000
